PathFileType	4	(X/Y/Z)	/Users/itak/Documents/Research/Walk-IL/dataset/trc/00455_00167.trc
DataRate	CameraRate	NumFrames	NumMarkers	Units	OrigDataRate	OrigDataStartFrame	OrigNumFrames
100.000000	100.000000	4	53	mm	100.000000	0	553
Frame#	Time	RPSI			LPSI			L3			STRN			T10			C7			CLAV			RBAK			LBAK			LSHO			LUPA			LAEL			LAOL			LWTS			LWPS			LFRA			LIFD			LHPS			LHTS			RSHO			RUPA			RAEL			RAOL			RWTS			RWPS			RFRA			RIFD			RHTS			RHPS			RBHD			LFHD			RFHD			LBHD			LHIP			RHIP			RASI			LASI			LKNE			LTHI			LANK			LTIP			LTOE			LMT1			LMT5			LHEE			RKNE			RTHI			RANK			RTIP			RTOE			RMT1			RMT5			RHEE			
		X1	Y1	Z1	X2	Y2	Z2	X3	Y3	Z3	X4	Y4	Z4	X5	Y5	Z5	X6	Y6	Z6	X7	Y7	Z7	X8	Y8	Z8	X9	Y9	Z9	X10	Y10	Z10	X11	Y11	Z11	X12	Y12	Z12	X13	Y13	Z13	X14	Y14	Z14	X15	Y15	Z15	X16	Y16	Z16	X17	Y17	Z17	X18	Y18	Z18	X19	Y19	Z19	X20	Y20	Z20	X21	Y21	Z21	X22	Y22	Z22	X23	Y23	Z23	X24	Y24	Z24	X25	Y25	Z25	X26	Y26	Z26	X27	Y27	Z27	X28	Y28	Z28	X29	Y29	Z29	X30	Y30	Z30	X31	Y31	Z31	X32	Y32	Z32	X33	Y33	Z33	X34	Y34	Z34	X35	Y35	Z35	X36	Y36	Z36	X37	Y37	Z37	X38	Y38	Z38	X39	Y39	Z39	X40	Y40	Z40	X41	Y41	Z41	X42	Y42	Z42	X43	Y43	Z43	X44	Y44	Z44	X45	Y45	Z45	X46	Y46	Z46	X47	Y47	Z47	X48	Y48	Z48	X49	Y49	Z49	X50	Y50	Z50	X51	Y51	Z51	X52	Y52	Z52	X53	Y53	Z53	

1	0	-1271.300415039062	962.4359130859375	-537.4651489257812	-1272.128295898438	961.3533935546875	-678.103271484375	-1264.1953125	1053.434814453125	-594.6585083007812	-1006.382446289062	1258.548583984375	-619.31396484375	-1292.295532226562	1177.13232421875	-597.8803100585938	-1230.669311523438	1446.12744140625	-590.6712036132812	-1046.03759765625	1370.368041992188	-619.9042358398438	-1284.522583007812	1327.136962890625	-489.8121948242188	-1271.242797851562	1397.645874023438	-687.6961669921875	-1176.502563476562	1424.053100585938	-776.2392578125	-1184.989868164062	1303.801635742188	-873.9501953125	-1145.541748046875	1086.767944335938	-902.1031494140625	-1227.088134765625	1070.777709960938	-840.5403442382812	-1057.963745117188	889.2164916992188	-847.0460815429688	-1100.328369140625	870.4884643554688	-905.9852905273438	-1118.522583007812	999.6007080078125	-908.1439819335938	-1042.392700195312	720.2265625	-853.2742309570312	-1087.46533203125	793.8836669921875	-905.9513549804688	-1036.361694335938	804.3098754882812	-855.3700561523438	-1149.674682617188	1420.291748046875	-435.1947937011719	-1157.925537109375	1357.678588867188	-358.0716552734375	-1119.291625976562	1068.792114257812	-311.4592895507812	-1179.631225585938	1050.88818359375	-336.1392822265625	-1027.979125976562	869.2858276367188	-393.3771057128906	-1073.262329101562	850.7863159179688	-319.6134033203125	-1109.9501953125	1009.69873046875	-305.5895385742188	-1024.324951171875	712.7481079101562	-392.3837585449219	-1005.16748046875	771.8553466796875	-387.1195068359375	-1054.463745117188	765.8151245117188	-328.8882446289062	-1137.718383789062	1645.343994140625	-511.7754821777344	-1012.076232910156	1655.836303710938	-676.0761108398438	-1004.301940917969	1656.694213867188	-545.6514282226562	-1164.714477539062	1649.214233398438	-687.2279663085938	-1141.00244140625	862.0602416992188	-798.586669921875	-1152.95654296875	860.9840087890625	-400.4115600585938	-1047.353759765625	903.2577514648438	-463.0616149902344	-1039.641357421875	900.0169677734375	-721.5965576171875	-1156.96826171875	444.1559448242188	-761.604736328125	-1122.543334960938	595.1353149414062	-784.8262939453125	-1247.915649414062	40.33341217041016	-749.3861083984375	-1174.082763671875	298.4881591796875	-774.5462646484375	-1006.676879882812	42.95165634155273	-706.394287109375	-1077.94873046875	50.16609954833984	-667.6527709960938	-1094.915405273438	46.04818725585938	-780.6234130859375	-1281.689697265625	45.99198913574219	-678.1361083984375	-1132.529418945312	467.080322265625	-435.6069641113281	-1113.345825195312	729.264404296875	-382.4100341796875	-1202.62060546875	43.29906463623047	-430.0760498046875	-1137.453369140625	325.7854614257812	-426.3819580078125	-991.9788818359375	46.775634765625	-498.2401123046875	-1059.010131835938	52.56885147094727	-529.1144409179688	-1066.650390625	47.66434097290039	-420.2050476074219	-1272.584716796875	35.14948654174805	-470.0060424804688	
2	0.01	-1271.364990234375	962.452392578125	-537.4437255859375	-1272.205444335938	961.3706665039062	-678.1026611328125	-1264.256469726562	1053.430541992188	-594.6019287109375	-1006.447204589844	1258.55322265625	-619.3090209960938	-1292.345581054688	1177.131958007812	-597.7997436523438	-1230.721557617188	1446.13427734375	-590.5897827148438	-1046.128784179688	1370.372924804688	-619.9015502929688	-1284.588256835938	1327.119262695312	-489.735107421875	-1271.314697265625	1397.674926757812	-687.6337280273438	-1176.621826171875	1424.07568359375	-776.16552734375	-1185.136596679688	1303.83740234375	-873.8999633789062	-1145.77099609375	1086.787841796875	-902.0962524414062	-1227.306518554688	1070.815795898438	-840.4638061523438	-1058.204833984375	889.20263671875	-847.0095825195312	-1100.661987304688	870.4627685546875	-905.98681640625	-1118.765014648438	999.5988159179688	-908.1074829101562	-1042.658569335938	720.2490844726562	-853.3897705078125	-1087.91162109375	793.9471435546875	-906.0087890625	-1036.5126953125	804.3168334960938	-855.3563842773438	-1149.710083007812	1420.232055664062	-435.1435241699219	-1157.989379882812	1357.5849609375	-358.0308532714844	-1119.373168945312	1068.685302734375	-311.5194396972656	-1179.733642578125	1050.814208984375	-336.1524353027344	-1028.039306640625	869.2530517578125	-393.3765258789062	-1073.381103515625	850.7183227539062	-319.6238403320312	-1110.085815429688	1009.60107421875	-305.5915832519531	-1024.211059570312	712.6448974609375	-392.2349243164062	-1005.166137695312	771.8460693359375	-387.1139221191406	-1054.526611328125	765.7780151367188	-328.8233337402344	-1137.704345703125	1645.338256835938	-511.7244873046875	-1012.167114257812	1655.867065429688	-676.0504150390625	-1004.2978515625	1656.71044921875	-545.6258544921875	-1164.759155273438	1649.257934570312	-687.1494140625	-1141.147705078125	862.0899658203125	-798.5928344726562	-1153.010986328125	860.9774780273438	-400.4171752929688	-1047.34521484375	903.2752685546875	-463.0697937011719	-1039.763793945312	900.007568359375	-721.5606079101562	-1156.984497070312	444.16748046875	-761.6093139648438	-1122.609130859375	595.1365356445312	-784.8297729492188	-1247.919921875	40.33118057250977	-749.392822265625	-1174.098754882812	298.48095703125	-774.5534057617188	-1006.682678222656	42.95973968505859	-706.4052734375	-1077.94775390625	50.17949295043945	-667.646484375	-1094.918579101562	46.05486297607422	-780.62451171875	-1281.666748046875	45.97354507446289	-678.18994140625	-1132.584838867188	467.0812377929688	-435.5941772460938	-1113.373901367188	729.25048828125	-382.4583740234375	-1202.619750976562	43.29893493652344	-430.0816955566406	-1137.487548828125	325.7890014648438	-426.3832092285156	-991.996337890625	46.77928161621094	-498.2257995605469	-1059.015869140625	52.56563949584961	-529.1131591796875	-1066.652465820312	47.66692733764648	-420.2035827636719	-1272.583984375	35.14653015136719	-470.0044555664062	
3	0.02	-1271.443237304688	962.475830078125	-537.4169311523438	-1272.299438476562	961.392822265625	-678.0985107421875	-1264.333251953125	1053.423828125	-594.5382080078125	-1006.525085449219	1258.560546875	-619.3021240234375	-1292.398681640625	1177.1298828125	-597.7147216796875	-1230.785766601562	1446.142211914062	-590.49267578125	-1046.237670898438	1370.369140625	-619.89111328125	-1284.674926757812	1327.096069335938	-489.6396789550781	-1271.403076171875	1397.707153320312	-687.5525512695312	-1176.768310546875	1424.105712890625	-776.0751953125	-1185.31298828125	1303.881469726562	-873.8416748046875	-1146.054809570312	1086.815551757812	-902.0846557617188	-1227.573486328125	1070.862182617188	-840.3701782226562	-1058.545532226562	889.16650390625	-846.9549560546875	-1101.060791015625	870.4408569335938	-905.9871215820312	-1119.063720703125	999.59912109375	-908.0669555664062	-1043.00439453125	720.2672729492188	-853.5173950195312	-1088.453002929688	794.0039672851562	-906.0635986328125	-1036.752807617188	804.3091430664062	-855.3502197265625	-1149.760375976562	1420.161987304688	-435.0807189941406	-1158.069091796875	1357.472900390625	-357.984619140625	-1119.480102539062	1068.5634765625	-311.5660705566406	-1179.84814453125	1050.722045898438	-336.161376953125	-1028.108276367188	869.2111206054688	-393.3735961914062	-1073.512573242188	850.635009765625	-319.6314697265625	-1110.239135742188	1009.48974609375	-305.5903930664062	-1024.086303710938	712.5298461914062	-392.0778198242188	-1005.175231933594	771.8287353515625	-387.1063232421875	-1054.600952148438	765.7282104492188	-328.7476196289062	-1137.694580078125	1645.335815429688	-511.6554260253906	-1012.288269042969	1655.906982421875	-676.0114135742188	-1004.297912597656	1656.728271484375	-545.5889892578125	-1164.819091796875	1649.318359375	-687.0413818359375	-1141.315063476562	862.1307983398438	-798.6004028320312	-1153.079956054688	860.970458984375	-400.4241638183594	-1047.341674804688	903.2937622070312	-463.0794677734375	-1039.900756835938	900.0016479492188	-721.5226440429688	-1157.000366210938	444.1806640625	-761.6146240234375	-1122.691284179688	595.1382446289062	-784.834228515625	-1247.924072265625	40.32767105102539	-749.400390625	-1174.118896484375	298.4730834960938	-774.5625	-1006.688903808594	42.96896362304688	-706.4161376953125	-1077.948486328125	50.19338989257812	-667.6383666992188	-1094.922607421875	46.06256484985352	-780.6256713867188	-1281.65283203125	45.95969772338867	-678.2304077148438	-1132.653564453125	467.0841064453125	-435.583740234375	-1113.408935546875	729.2365112304688	-382.5240173339844	-1202.619262695312	43.29816818237305	-430.0860290527344	-1137.531616210938	325.79345703125	-426.38427734375	-992.0131225585938	46.7835807800293	-498.2127380371094	-1059.021118164062	52.56117248535156	-529.1121826171875	-1066.654541015625	47.66970825195312	-420.2019348144531	-1272.5830078125	35.14281845092773	-470.0025024414062	
4	0.03	-1271.530395507812	962.5059204101562	-537.3871459960938	-1272.406860351562	961.4187622070312	-678.0894775390625	-1264.422607421875	1053.414428710938	-594.4732055664062	-1006.611450195312	1258.571044921875	-619.2926635742188	-1292.450073242188	1177.126098632812	-597.6336669921875	-1230.85888671875	1446.150756835938	-590.3859252929688	-1046.3583984375	1370.353637695312	-619.8704833984375	-1284.780517578125	1327.067993164062	-489.531005859375	-1271.503784179688	1397.73974609375	-687.4544677734375	-1176.933349609375	1424.142333984375	-775.973876953125	-1185.506958007812	1303.930908203125	-873.7789306640625	-1146.37939453125	1086.850952148438	-902.0672607421875	-1227.873291015625	1070.913452148438	-840.2647705078125	-1058.976440429688	889.1071166992188	-846.88330078125	-1101.500244140625	870.427490234375	-905.9850463867188	-1119.404174804688	999.6021118164062	-908.0256958007812	-1043.424682617188	720.2732543945312	-853.6438598632812	-1089.055297851562	794.0429077148438	-906.1055908203125	-1037.103149414062	804.2755126953125	-855.3577270507812	-1149.826049804688	1420.086303710938	-435.0091247558594	-1158.161499023438	1357.35009765625	-357.9366149902344	-1119.609741210938	1068.437133789062	-311.5838928222656	-1179.964965820312	1050.616821289062	-336.1612243652344	-1028.1806640625	869.161376953125	-393.3668212890625	-1073.64306640625	850.5408935546875	-319.6321716308594	-1110.396850585938	1009.374084472656	-305.5838928222656	-1023.963317871094	712.4133911132812	-391.93115234375	-1005.198486328125	771.8009033203125	-387.0962219238281	-1054.680908203125	765.6663208007812	-328.66748046875	-1137.694091796875	1645.339233398438	-511.56787109375	-1012.436767578125	1655.954467773438	-675.9576416015625	-1004.304260253906	1656.746337890625	-545.5402221679688	-1164.894653320312	1649.39501953125	-686.9044799804688	-1141.493286132812	862.181884765625	-798.61083984375	-1153.16015625	860.9637451171875	-400.4319458007812	-1047.347412109375	903.31005859375	-463.0907287597656	-1040.0419921875	900.0012817382812	-721.48779296875	-1157.014526367188	444.1948547363281	-761.6210327148438	-1122.785034179688	595.1400146484375	-784.8392944335938	-1247.927734375	40.32256698608398	-749.4080810546875	-1174.14208984375	298.4645385742188	-774.5736694335938	-1006.695434570312	42.97888946533203	-706.4256591796875	-1077.952026367188	50.20553970336914	-667.628662109375	-1094.927612304688	46.07078170776367	-780.6267700195312	-1281.650146484375	45.9521598815918	-678.2516479492188	-1132.733642578125	467.0891723632812	-435.5765686035156	-1113.448364257812	729.2234497070312	-382.6070861816406	-1202.619140625	43.29624557495117	-430.0879821777344	-1137.584594726562	325.7984008789062	-426.38525390625	-992.0274047851562	46.78849029541016	-498.2026062011719	-1059.024780273438	52.55606460571289	-529.111572265625	-1066.656372070312	47.6724739074707	-420.2003479003906	-1272.581787109375	35.13798904418945	-470.0003051757812	
